<svg width="24" height="24" viewBox="0 0 24 24" fill="none" xmlns="http://www.w3.org/2000/svg">
<g clip-path="url(#clip0_772_14)">
<path d="M10 15L3 15C2.45 15 2 15.45 2 16C2 16.55 2.45 17 3 17L10 17C10.55 17 11 16.55 11 16C11 15.45 10.55 15 10 15Z" fill="#868E96"/>
<path d="M3 9L10 9C10.55 9 11 8.55 11 8C11 7.45 10.55 7 10 7L3 7C2.45 7 2 7.45 2 8C2 8.55 2.45 9 3 9Z" fill="#868E96"/>
<path d="M3 13L7 13C7.55 13 8 12.55 8 12C8 11.45 7.55 11 7 11L3 11C2.45 11 2 11.45 2 12C2 12.55 2.45 13 3 13Z" fill="#868E96"/>
<path d="M15.15 16.1501C15.46 16.4601 16 16.2401 16 15.7901L16 13.0001L21 13.0001C21.55 13.0001 22 12.5501 22 12.0001C22 11.4501 21.55 11.0001 21 11.0001L16 11.0001L16 8.21006C16 7.76006 15.46 7.54006 15.15 7.86006L11.36 11.6501C11.16 11.8501 11.16 12.1601 11.36 12.3601L15.15 16.1501Z" fill="#868E96"/>
</g>
<defs>
<clipPath id="clip0_772_14">
<rect width="24" height="24" fill="white"/>
</clipPath>
</defs>
</svg>
